<?xml version="1.0" standalone="no"?>
<!DOCTYPE svg PUBLIC "-//W3C//DTD SVG 20010904//EN"
 "http://www.w3.org/TR/2001/REC-SVG-20010904/DTD/svg10.dtd">
<svg version="1.0" xmlns="http://www.w3.org/2000/svg"
 width="1080.000000pt" height="1080.000000pt" viewBox="0 0 1080.000000 1080.000000"
 preserveAspectRatio="xMidYMid meet">

<g transform="translate(0.000000,1080.000000) scale(0.100000,-0.100000)"
fill="#000000" stroke="none">
<path d="M0 5400 l0 -5400 5400 0 5400 0 0 5400 0 5400 -5400 0 -5400 0 0
-5400z m5849 2025 c60 -51 80 -171 81 -477 l0 -208 173 0 c94 0 188 -5 208
-10 48 -13 114 -86 129 -139 7 -28 10 -164 8 -414 -3 -361 -4 -374 -26 -428
-30 -76 -89 -141 -154 -170 -52 -24 -59 -24 -399 -27 -269 -3 -353 0 -378 10
-17 7 -48 36 -69 63 l-38 50 -192 3 -192 2 0 440 0 439 43 12 c109 29 270 130
357 226 73 79 112 169 154 350 43 182 59 228 99 271 29 30 35 32 98 32 58 0
72 -4 98 -25z m-949 -1310 l0 -565 -270 0 -270 0 0 565 0 565 270 0 270 0 0
-565z m1615 -892 c-7 -40 -35 -265 -35 -280 0 -9 15 -3 42 14 37 25 51 28 124
28 78 0 84 -2 114 -30 40 -38 58 -81 66 -158 7 -75 -9 -170 -41 -243 -29 -66
-103 -146 -159 -174 -57 -27 -158 -28 -203 -1 -27 17 -33 18 -43 5 -9 -10 -35
-14 -92 -14 l-80 0 6 43 c3 23 26 215 51 427 26 212 48 391 50 398 3 8 33 12
104 12 l101 0 -5 -27z m1855 24 c0 -11 -51 -417 -55 -444 -4 -19 -2 -33 4 -33
6 0 42 44 82 98 40 53 77 100 83 104 18 13 216 10 216 -3 0 -12 -123 -173
-171 -224 l-29 -31 70 -164 c39 -91 70 -168 70 -172 0 -5 -47 -8 -104 -8 -77
0 -107 4 -115 14 -7 8 -31 62 -55 121 -60 150 -70 152 -85 12 -18 -161 -6
-147 -122 -147 -54 0 -99 3 -99 8 0 16 102 848 105 860 3 8 33 12 105 12 55 0
100 -1 100 -3z m-5938 -34 c8 -10 75 -125 148 -256 73 -131 134 -236 135 -235
2 2 15 102 29 223 14 121 28 235 31 253 l6 32 96 0 96 0 -6 -37 c-3 -21 -27
-215 -53 -430 l-48 -393 -76 0 c-46 0 -83 5 -92 13 -9 6 -77 120 -152 252 -74
131 -137 233 -140 225 -4 -13 -57 -464 -56 -482 0 -5 -43 -8 -95 -8 -94 0 -95
0 -95 24 0 24 84 724 96 799 l6 37 77 0 c62 0 81 -4 93 -17z m2184 -10 c-3
-16 -8 -52 -11 -80 l-7 -53 -153 0 -153 0 -6 -42 c-3 -24 -8 -71 -12 -105 l-7
-63 128 0 127 0 -6 -47 c-4 -27 -10 -63 -13 -80 l-5 -33 -124 0 c-120 0 -124
-1 -128 -22 -3 -13 -13 -84 -22 -158 -9 -74 -18 -138 -21 -142 -2 -5 -51 -8
-108 -8 l-104 0 4 28 c3 15 25 194 50 397 24 204 47 385 50 403 l6 32 260 0
261 0 -6 -27z m-741 -83 c0 -19 -4 -59 -7 -87 l-7 -53 64 0 65 0 0 -32 c0 -18
-3 -50 -6 -70 l-7 -38 -66 0 -67 0 -19 -155 c-10 -86 -15 -159 -11 -163 4 -4
24 -7 44 -7 34 0 39 -4 60 -48 28 -58 22 -69 -50 -93 -34 -11 -72 -15 -119
-12 -61 3 -73 7 -100 34 -52 52 -52 68 -13 387 l7 57 -32 0 c-38 0 -46 15 -37
75 7 42 9 45 53 57 46 13 47 14 72 88 14 42 30 81 34 88 6 9 30 12 75 10 l67
-3 0 -35z m-456 -156 c201 -101 158 -458 -69 -576 -53 -27 -171 -37 -232 -19
-49 15 -103 62 -131 115 -18 34 -22 57 -22 141 0 91 3 106 32 167 62 131 161
198 294 198 61 0 85 -5 128 -26z m1645 17 c21 -5 42 -13 46 -18 4 -4 -9 -138
-29 -298 l-36 -290 -78 -3 -78 -3 -10 31 -11 30 -45 -32 c-37 -27 -55 -33
-111 -36 -57 -3 -72 0 -101 20 -69 46 -99 148 -80 267 24 153 120 271 262 322
57 20 202 25 271 10z m521 -10 c84 -38 92 -75 28 -131 -37 -33 -43 -33 -104
-7 -33 15 -39 15 -70 -1 -108 -54 -138 -286 -42 -323 22 -8 37 -5 86 21 32 17
66 28 75 25 10 -2 30 -21 46 -41 34 -43 31 -52 -33 -101 -52 -41 -97 -53 -190
-53 -165 0 -248 101 -239 289 3 67 10 99 32 143 35 73 102 142 169 173 67 32
181 34 242 6z m511 0 c77 -35 114 -110 94 -189 -14 -56 -39 -86 -101 -117 -45
-23 -175 -55 -224 -55 -23 0 -25 -3 -19 -27 18 -77 95 -98 178 -49 24 14 55
26 67 26 27 0 89 -57 89 -81 0 -21 -107 -94 -158 -109 -62 -17 -192 -12 -237
9 -107 49 -161 171 -136 306 24 128 91 223 193 275 52 26 72 30 137 30 52 0
89 -6 117 -19z m1215 -4 c120 -64 160 -226 97 -396 -28 -75 -123 -171 -192
-194 -67 -23 -179 -22 -232 2 -49 23 -107 88 -122 140 -31 101 -3 251 62 339
67 92 146 131 267 132 61 0 85 -5 120 -23z m610 0 c120 -64 160 -226 97 -396
-28 -75 -123 -171 -192 -194 -67 -23 -179 -22 -232 2 -49 23 -107 88 -122 140
-30 97 -4 245 57 334 64 94 148 136 267 137 66 0 89 -4 125 -23z"/>
<path d="M6517 4799 c-42 -48 -74 -132 -82 -216 l-7 -62 34 -9 c45 -12 63 -6
98 34 35 41 60 119 60 190 0 109 -42 135 -103 63z"/>
<path d="M3247 4833 c-68 -35 -107 -230 -61 -307 17 -28 60 -23 95 10 37 35
59 108 59 194 0 96 -34 134 -93 103z"/>
<path d="M4875 4840 c-44 -10 -79 -36 -109 -80 -90 -136 -30 -327 63 -199 17
22 37 61 45 87 14 43 40 193 34 197 -2 1 -17 -1 -33 -5z"/>
<path d="M5939 4842 c-20 -10 -44 -35 -57 -60 l-24 -43 29 6 c92 21 130 47
119 83 -10 29 -29 33 -67 14z"/>
<path d="M7120 4820 c-41 -41 -63 -109 -64 -193 -1 -74 1 -80 26 -102 32 -28
56 -24 91 13 50 54 75 210 44 272 -17 34 -68 39 -97 10z"/>
<path d="M7734 4826 c-38 -27 -67 -112 -68 -199 -1 -74 1 -80 27 -103 40 -34
81 -14 119 61 26 50 35 188 16 225 -16 30 -63 38 -94 16z"/>
</g>
</svg>
